<svg width="16" height="17" viewBox="0 0 16 17" xmlns="http://www.w3.org/2000/svg">
<path fill-rule="evenodd" clip-rule="evenodd" d="M2.06312 2.89895C2.95277 2.00931 4.28403 1.66917 6.00001 1.66917H10C11.716 1.66917 13.0473 2.00931 13.9369 2.89895C14.8265 3.7886 15.1667 5.11986 15.1667 6.83584V10.8358C15.1667 12.5518 14.8265 13.8831 13.9369 14.7727C13.0473 15.6624 11.716 16.0025 10 16.0025H6.00001C4.28403 16.0025 2.95277 15.6624 2.06312 14.7727C1.17348 13.8831 0.833344 12.5518 0.833344 10.8358V6.83584C0.833344 5.11986 1.17348 3.7886 2.06312 2.89895ZM2.77023 3.60606C2.15988 4.21642 1.83334 5.21849 1.83334 6.83584V10.8358C1.83334 12.4532 2.15988 13.4553 2.77023 14.0656C3.38058 14.676 4.38266 15.0025 6.00001 15.0025H10C11.6174 15.0025 12.6194 14.676 13.2298 14.0656C13.8401 13.4553 14.1667 12.4532 14.1667 10.8358V6.83584C14.1667 5.21849 13.8401 4.21642 13.2298 3.60606C12.6194 2.99571 11.6174 2.66917 10 2.66917H6.00001C4.38266 2.66917 3.38058 2.99571 2.77023 3.60606ZM6.43425 5.92115C7.67529 4.68802 9.6777 4.6864 10.9136 5.92228L10.9147 5.92341C12.1478 7.16445 12.1495 9.16684 10.9136 10.4027L9.43356 11.8827C8.7183 12.598 7.55503 12.598 6.83977 11.8827C6.12451 11.1675 6.12451 10.0042 6.83977 9.28894L7.7798 8.34893C7.97506 8.15367 8.29165 8.15368 8.48691 8.34894C8.68217 8.54421 8.68216 8.86079 8.4869 9.05605L7.54688 9.99605C7.54688 9.99605 7.54688 9.99604 7.54688 9.99605C7.22215 10.3208 7.22214 10.8509 7.54688 11.1756C7.87162 11.5004 8.40171 11.5004 8.72645 11.1756L10.2065 9.69562C11.0504 8.8517 11.0522 7.48118 10.2059 6.62885C9.36194 5.78544 7.99174 5.78383 7.13959 6.63002C7.13942 6.63018 7.13976 6.62985 7.13959 6.63002L5.5269 8.24271C4.82883 8.94078 4.82883 10.0709 5.5269 10.7689C5.72216 10.9642 5.72216 11.2808 5.5269 11.476C5.33164 11.6713 5.01506 11.6713 4.81979 11.476C3.7312 10.3875 3.7312 8.6242 4.81979 7.5356L6.43312 5.92228L6.43425 5.92115Z"/>
</svg>
