<svg width="25" height="24" viewBox="0 0 25 24" xmlns="http://www.w3.org/2000/svg">
<path d="M8.33154 5.75C7.92154 5.75 7.58154 5.41 7.58154 5V2C7.58154 1.59 7.92154 1.25 8.33154 1.25C8.74154 1.25 9.08154 1.59 9.08154 2V5C9.08154 5.41 8.74154 5.75 8.33154 5.75Z" />
<path d="M15.8315 5.75C15.4215 5.75 15.0815 5.41 15.0815 5V2C15.0815 1.59 15.4215 1.25 15.8315 1.25C16.2415 1.25 16.5815 1.59 16.5815 2V5C16.5815 5.41 16.2415 5.75 15.8315 5.75Z" />
<path d="M12.0815 14.09C12.6015 14.09 12.9815 13.78 12.9815 13.29C12.9815 12.79 12.6015 12.5 12.0815 12.5C11.5615 12.5 11.1815 12.79 11.1815 13.29C11.1815 13.78 11.5615 14.09 12.0815 14.09Z" />
<path d="M12.0815 17C12.7111 17 13.2215 16.5836 13.2215 16.07C13.2215 15.5564 12.7111 15.14 12.0815 15.14C11.4519 15.14 10.9415 15.5564 10.9415 16.07C10.9415 16.5836 11.4519 17 12.0815 17Z" />
<path d="M19.6515 4.5C18.9915 4.01 18.0415 4.48 18.0415 5.31V5.41C18.0415 6.58 17.2015 7.66 16.0315 7.78C14.6815 7.92 13.5415 6.86 13.5415 5.54V4.5C13.5415 3.95 13.0915 3.5 12.5415 3.5H11.6215C11.0715 3.5 10.6215 3.95 10.6215 4.5V5.54C10.6215 6.33 10.2115 7.03 9.59154 7.42C9.50154 7.48 9.40154 7.53 9.30154 7.58C9.21154 7.63 9.11154 7.67 9.00154 7.7C8.88154 7.74 8.75154 7.77 8.61154 7.78C8.45154 7.8 8.29154 7.8 8.13154 7.78C7.99154 7.77 7.86154 7.74 7.74154 7.7C7.64154 7.67 7.54154 7.63 7.44154 7.58C7.34154 7.53 7.24154 7.48 7.15154 7.42C6.52154 6.98 6.12154 6.22 6.12154 5.41V5.31C6.12154 4.54 5.30154 4.08 4.65154 4.41C4.64154 4.42 4.63154 4.42 4.62154 4.43C4.58154 4.45 4.55154 4.47 4.51154 4.5C4.48154 4.53 4.44154 4.55 4.41154 4.58C4.13154 4.8 3.88154 5.05 3.67154 5.32C3.56154 5.44 3.47154 5.57 3.39154 5.7C3.38154 5.71 3.37154 5.72 3.36154 5.74C3.27154 5.87 3.19154 6.02 3.12154 6.16C3.10154 6.18 3.09154 6.19 3.09154 6.21C3.03154 6.33 2.97154 6.45 2.93154 6.58C2.90154 6.63 2.89154 6.67 2.87154 6.72C2.81154 6.87 2.77154 7.02 2.73154 7.17C2.69154 7.31 2.66154 7.46 2.64154 7.61C2.62154 7.72 2.61154 7.83 2.60154 7.95C2.59154 8.09 2.58154 8.23 2.58154 8.37V17.13C2.58154 19.82 4.76154 22 7.45154 22H16.7115C19.4015 22 21.5815 19.82 21.5815 17.13V8.37C21.5815 6.78 20.8215 5.39 19.6515 4.5ZM12.0815 18.25C10.5315 18.25 9.58154 17.48 9.58154 16.24C9.58154 15.56 9.93154 14.97 10.5415 14.62C10.1015 14.31 9.81154 13.85 9.81154 13.22C9.81154 11.92 10.8515 11.25 12.0815 11.25C13.3115 11.25 14.3415 11.92 14.3415 13.22C14.3415 13.85 14.0615 14.31 13.6115 14.62C14.2315 14.97 14.5815 15.56 14.5815 16.24C14.5815 17.48 13.6215 18.25 12.0815 18.25Z" />
</svg>
