<svg xmlns="http://www.w3.org/2000/svg" width="24" height="24" viewBox="0 0 24 24">
  <path d="M21.27 9.18c-.29-.46-.6-.89-.92-1.29a1 1 0 0 0-1.49-.09l-3 3c.22.66.26 1.42.06 2.21a4.021 4.021 0 0 1-2.9 2.9c-.79.2-1.55.16-2.21-.06l-2.46 2.46c-.5.5-.34 1.38.33 1.64 1.07.41 2.18.62 3.32.62 1.78 0 3.51-.52 5.09-1.49 1.61-1 3.06-2.47 4.23-4.34.95-1.51.9-4.05-.05-5.56Z"/>
  <path d="M14.86 12c0 1.57-1.28 2.86-2.86 2.86-.06 0-.11 0-.17-.02l3.01-3.01c.02.06.02.11.02.17Z"/>
  <path fill-rule="evenodd" d="M20.68 2.23c.3-.3.79-.3 1.09 0 .31.3.31.78 0 1.08L3.31 21.77a.758.758 0 0 1-1.08.01c-.3-.3-.3-.79 0-1.09l2.94-2.941a14.66 14.66 0 0 1-2.42-2.909c-1-1.57-1-4.12 0-5.69C3.91 7.33 5.33 5.9 6.91 4.92c1.58-.96 3.31-1.49 5.09-1.49 1.986 0 3.917.65 5.63 1.852l3.05-3.052Zm-6.413 6.416A4.018 4.018 0 0 0 12 7.96c-2.24 0-4.04 1.81-4.04 4.04 0 .842.254 1.621.69 2.266l.864-.864A2.844 2.844 0 0 1 9.14 12c0-1.57 1.28-2.86 2.86-2.86.504 0 .984.138 1.4.374l.867-.868Z" clip-rule="evenodd"/>
</svg>
