<svg width="16" height="17" viewBox="0 0 16 17" xmlns="http://www.w3.org/2000/svg">
<path fill-rule="evenodd" clip-rule="evenodd" d="M12.3672 4.47014C10.9942 3.10303 8.77749 3.09961 7.41429 4.46864C6.04813 5.84063 6.04922 8.05796 7.41354 9.42229C7.6088 9.61755 7.6088 9.93413 7.41354 10.1294C7.21828 10.3247 6.90169 10.3247 6.70643 10.1294C4.95075 8.37371 4.95184 5.52438 6.70568 3.76304C8.46248 1.99873 11.3124 2.00865 13.0728 3.76153C14.8371 5.51833 14.8272 8.36826 13.0743 10.1286C12.8794 10.3243 12.5629 10.325 12.3672 10.1301C12.1715 9.9353 12.1708 9.61872 12.3657 9.42304C13.7328 8.05008 13.7362 5.83334 12.3672 4.47014ZM3.641 7.77641C3.83582 7.97211 3.83512 8.28869 3.63942 8.48351C2.33717 9.77998 2.34044 11.89 3.641 13.1964C4.93746 14.4987 7.04753 14.4954 8.35389 13.1948C9.65714 11.8974 9.65828 9.7879 8.3531 8.48273C8.15784 8.28747 8.15784 7.97088 8.3531 7.77562C8.54837 7.58036 8.86495 7.58036 9.06021 7.77562C10.755 9.47045 10.7562 12.2143 9.05942 13.9035C7.36578 15.5896 4.62252 15.5997 2.93232 13.9019C1.24621 12.2083 1.23614 9.46504 2.93389 7.77483C3.12959 7.58001 3.44617 7.58071 3.641 7.77641Z" />
</svg>
