<svg xmlns="http://www.w3.org/2000/svg" width="24" height="24" viewBox="0 0 24 24">
<path d="M20 19.2603H4.00359C3.55359 19.2603 3.18359 18.8903 3.18359 18.4403C3.18359 17.9903 3.55359 17.6203 4.00359 17.6203H20C20.45 17.6203 20.82 17.9903 20.82 18.4403C20.82 18.9003 20.45 19.2603 20 19.2603Z"/>
<path d="M20 12.9703H4.00359C3.55359 12.9703 3.18359 12.6003 3.18359 12.1503C3.18359 11.7003 3.55359 11.3303 4.00359 11.3303H20C20.45 11.3303 20.82 11.7003 20.82 12.1503C20.82 12.6003 20.45 12.9703 20 12.9703Z"/>
<path d="M20 6.67027H4.00359C3.55359 6.67027 3.18359 6.30027 3.18359 5.85027C3.18359 5.40027 3.55359 5.03027 4.00359 5.03027H20C20.45 5.03027 20.82 5.40027 20.82 5.85027C20.82 6.30027 20.45 6.67027 20 6.67027Z"/>
</svg>