<svg xmlns="http://www.w3.org/2000/svg" width="24" height="24" viewBox="0 0 24 24">
<path d="M18.2372 7.07409L6.92601 18.3852C6.60782 18.7034 6.08456 18.7034 5.76636 18.3852C5.44816 18.067 5.44816 17.5438 5.76636 17.2256L17.0775 5.91443C17.3957 5.59623 17.919 5.59623 18.2372 5.91443C18.5554 6.23263 18.5554 6.75589 18.2372 7.07409Z" />
<path d="M17.0775 18.3852L5.76636 7.07409C5.44816 6.75589 5.44816 6.23263 5.76636 5.91443C6.08456 5.59623 6.60782 5.59623 6.92601 5.91443L18.2372 17.2256C18.5554 17.5438 18.5554 18.067 18.2372 18.3852C17.919 18.7034 17.3957 18.7034 17.0775 18.3852Z" />
</svg>