<svg width="16" height="17" viewBox="0 0 16 17" xmlns="http://www.w3.org/2000/svg">
<path fill-rule="evenodd" clip-rule="evenodd" d="M2.06312 2.89895C2.95277 2.0093 4.28403 1.66917 6.00001 1.66917H10C11.716 1.66917 13.0472 2.0093 13.9369 2.89895C14.8265 3.78859 15.1667 5.11985 15.1667 6.83583V10.8358C15.1667 12.5518 14.8265 13.8831 13.9369 14.7727C13.0472 15.6624 11.716 16.0025 10 16.0025H6.00001C4.28403 16.0025 2.95277 15.6624 2.06312 14.7727C1.17348 13.8831 0.833344 12.5518 0.833344 10.8358V6.83583C0.833344 5.11985 1.17348 3.78859 2.06312 2.89895ZM2.77023 3.60605C2.15988 4.21641 1.83334 5.21848 1.83334 6.83583V10.8358C1.83334 12.4532 2.15988 13.4553 2.77023 14.0656C3.38058 14.676 4.38266 15.0025 6.00001 15.0025H10C11.6174 15.0025 12.6194 14.676 13.2298 14.0656C13.8401 13.4553 14.1667 12.4532 14.1667 10.8358V6.83583C14.1667 5.21848 13.8401 4.21641 13.2298 3.60605C12.6194 2.9957 11.6174 2.66917 10 2.66917H6.00001C4.38266 2.66917 3.38058 2.9957 2.77023 3.60605ZM6.4902 5.89432C6.63093 6.13191 6.55242 6.4386 6.31483 6.57934C5.78332 6.89418 5.55081 7.06848 5.40703 7.32517C5.28748 7.5386 5.20558 7.85506 5.17741 8.4425H6.45326C7.21923 8.4425 7.7466 9.04314 7.7466 9.73584V10.7292C7.7466 11.4219 7.21923 12.0225 6.45326 12.0225H5.45993C4.75045 12.0225 4.1666 11.4387 4.1666 10.7292V8.9425C4.1666 8.00342 4.24929 7.34579 4.53457 6.83648C4.82583 6.31649 5.29003 6.02411 5.80518 5.71896C6.04277 5.57822 6.34946 5.65673 6.4902 5.89432ZM5.1666 9.4425V10.7292C5.1666 10.8864 5.30274 11.0225 5.45993 11.0225H6.45326C6.63397 11.0225 6.7466 10.9032 6.7466 10.7292V9.73584C6.7466 9.56186 6.63397 9.4425 6.45326 9.4425H5.1666ZM10.5834 5.89434C10.7241 6.13193 10.6456 6.43862 10.408 6.57936C9.87651 6.8942 9.64399 7.0685 9.50021 7.32519C9.38066 7.53862 9.29876 7.85508 9.27059 8.44252H10.5464C11.3124 8.44252 11.8398 9.04316 11.8398 9.73586V10.7292C11.8398 11.4219 11.3124 12.0226 10.5464 12.0226H9.55311C8.84363 12.0226 8.25978 11.4387 8.25978 10.7292V8.94252C8.25978 8.00344 8.34248 7.34581 8.62776 6.8365C8.91902 6.31651 9.38321 6.02413 9.89837 5.71898C10.136 5.57824 10.4426 5.65675 10.5834 5.89434ZM9.25978 9.44252V10.7292C9.25978 10.8864 9.39592 11.0226 9.55311 11.0226H10.5464C10.7271 11.0226 10.8398 10.9032 10.8398 10.7292V9.73586C10.8398 9.56188 10.7271 9.44252 10.5464 9.44252H9.25978Z"/>
</svg>
