<svg width="91" height="91" viewBox="0 0 91 91" xmlns="http://www.w3.org/2000/svg">
<path d="M77.6297 52.2172L83.8598 57.9147L83.9213 57.932L85.1078 53.6884L86.1953 53.9925L84.6417 59.5493L83.5172 59.2349L77.2591 53.5427L77.6297 52.2172Z" />
<path d="M72.1454 75.0713C72.4607 75.327 72.8135 75.4183 73.2038 75.3452C73.5961 75.2741 73.9705 75.0632 74.327 74.7126C74.5822 74.4616 74.7631 74.2039 74.8697 73.9396C74.9784 73.6774 75.0156 73.4256 74.9814 73.1842C74.9472 72.9469 74.8434 72.7401 74.6701 72.5639C74.5247 72.4161 74.3647 72.3223 74.1903 72.2827C74.0138 72.2451 73.833 72.2456 73.6479 72.2843C73.4627 72.327 73.2804 72.3887 73.1009 72.4696C72.9235 72.5525 72.759 72.6386 72.6076 72.7277L71.8447 73.1674C71.5984 73.314 71.3301 73.4484 71.0398 73.5706C70.7495 73.6928 70.4485 73.7737 70.1368 73.8133C69.8251 73.8529 69.5159 73.8262 69.2094 73.7333C68.9007 73.6424 68.609 73.4572 68.334 73.1777C67.9874 72.8253 67.7707 72.4227 67.6841 71.97C67.5954 71.5193 67.6455 71.0456 67.8344 70.5489C68.0213 70.0543 68.3577 69.5679 68.8438 69.0898C69.3096 68.6316 69.7854 68.309 70.2711 68.1222C70.7567 67.9353 71.2293 67.883 71.6886 67.9651C72.15 68.0493 72.5751 68.2687 72.9639 68.6235L72.0221 69.5499C71.7827 69.343 71.5256 69.2274 71.2505 69.203C70.9755 69.1826 70.7019 69.2346 70.4296 69.359C70.1574 69.4873 69.9007 69.67 69.6597 69.9071C69.3944 70.168 69.1993 70.4417 69.0744 70.7279C68.9495 71.0182 68.901 71.297 68.9289 71.5644C68.9588 71.8339 69.0734 72.0698 69.2726 72.2724C69.4539 72.4567 69.655 72.5558 69.8758 72.5696C70.0947 72.5855 70.3311 72.5442 70.585 72.4459C70.8369 72.3495 71.1031 72.2211 71.3837 72.0607L72.3161 71.5381C72.9478 71.1837 73.539 70.9947 74.0896 70.9711C74.6382 70.9495 75.1257 71.1554 75.552 71.5888C75.9046 71.9473 76.1152 72.3558 76.1838 72.8144C76.2523 73.273 76.1932 73.7396 76.0065 74.2142C75.8218 74.6908 75.5208 75.1343 75.1036 75.5447C74.6823 75.959 74.238 76.2507 73.7705 76.4196C73.301 76.5905 72.8456 76.638 72.4043 76.562C71.965 76.4881 71.5769 76.288 71.2401 75.9618L72.1454 75.0713Z" />
<path d="M61.7976 72.2883L65.6164 80.4379L64.4897 80.9659L64.0395 80.0051L63.943 80.0503C63.934 80.2051 63.9044 80.3931 63.8543 80.6142C63.8042 80.8353 63.6956 81.0588 63.5284 81.2846C63.3625 81.5129 63.0955 81.7133 62.7277 81.8857C62.2492 82.1099 61.7655 82.1891 61.2766 82.1233C60.7877 82.0574 60.3298 81.8469 59.903 81.4916C59.4735 81.1375 59.1087 80.6402 58.8086 79.9997C58.5084 79.3591 58.3578 78.7599 58.3568 78.2019C58.3569 77.6465 58.4856 77.158 58.7429 76.7362C59.0014 76.317 59.3699 75.9954 59.8484 75.7711C60.2085 75.6024 60.5314 75.5248 60.817 75.5384C61.1001 75.5533 61.3439 75.6116 61.5484 75.7134C61.753 75.8152 61.9195 75.9128 62.0481 76.0063L62.1175 75.9738L60.6439 72.8289L61.7976 72.2883ZM63.0972 78.0042C62.9019 77.5875 62.6703 77.2505 62.4023 76.9933C62.1343 76.7361 61.8443 76.5724 61.5322 76.5022C61.2212 76.4345 60.8999 76.4785 60.568 76.634C60.2233 76.7955 59.978 77.0218 59.832 77.313C59.6873 77.6067 59.6299 77.9395 59.6598 78.3113C59.6872 78.6844 59.7937 79.069 59.9793 79.4652C60.1625 79.8562 60.3863 80.1796 60.6504 80.4354C60.9121 80.6925 61.2021 80.8562 61.5206 80.9266C61.8365 80.9981 62.1681 80.9526 62.5154 80.7898C62.8498 80.6331 63.0924 80.4143 63.2431 80.1335C63.3913 79.8539 63.4523 79.532 63.426 79.1678C63.3996 78.8037 63.29 78.4158 63.0972 78.0042Z" />
<path d="M50.7789 78.7718C51.1907 78.7226 51.5722 78.7543 51.9232 78.8668C52.2746 78.9822 52.5652 79.175 52.7949 79.4451C53.0217 79.7155 53.1606 80.0637 53.2115 80.4897C53.2553 80.8564 53.2208 81.1666 53.1081 81.4204C52.9954 81.6742 52.8274 81.8846 52.6041 82.0514C52.3809 82.2183 52.1254 82.3547 51.8376 82.4606C51.5498 82.5665 51.2544 82.6562 50.9513 82.7296C50.5674 82.8212 50.2559 82.8956 50.0166 82.9528C49.7778 83.0128 49.6074 83.0833 49.5054 83.1641C49.4035 83.245 49.3616 83.3615 49.3798 83.5139L49.3834 83.5435C49.4275 83.913 49.5661 84.1869 49.7991 84.365C50.0293 84.5435 50.3489 84.6083 50.7579 84.5595C51.1839 84.5086 51.5083 84.374 51.7311 84.1557C51.9515 83.9405 52.0945 83.7131 52.1603 83.4735L53.3817 83.6023C53.2878 84.014 53.12 84.3574 52.8781 84.6323C52.6338 84.9104 52.3405 85.1257 51.9983 85.2782C51.6563 85.4335 51.2893 85.5346 50.8972 85.5814C50.6377 85.6124 50.3589 85.6143 50.061 85.5869C49.7605 85.5627 49.4738 85.4854 49.2007 85.3549C48.9248 85.2248 48.6871 85.02 48.4878 84.7406C48.2888 84.4639 48.161 84.0886 48.1044 83.6147L47.5888 79.2988L48.8243 79.1512L48.9305 80.0398L48.9812 80.0337C49.0435 79.8604 49.147 79.6849 49.2917 79.5074C49.4365 79.3299 49.6309 79.1736 49.8752 79.0386C50.1194 78.9035 50.4206 78.8146 50.7789 78.7718ZM50.6252 79.8202C50.2754 79.8619 49.9846 79.9668 49.7529 80.1347C49.5184 80.3029 49.3495 80.5062 49.2464 80.7445C49.1408 80.986 49.1033 81.2351 49.134 81.4918L49.2341 82.3296C49.2738 82.2791 49.3562 82.2263 49.4812 82.1713C49.6038 82.1195 49.7452 82.0697 49.9054 82.0219C50.066 81.977 50.2225 81.934 50.375 81.8929C50.5278 81.8546 50.6555 81.8222 50.7582 81.7956C50.9999 81.7353 51.2179 81.6563 51.4123 81.5587C51.6038 81.4614 51.7519 81.3364 51.8567 81.1837C51.959 81.0341 51.9967 80.8465 51.9697 80.6209C51.9323 80.3077 51.7883 80.0846 51.5378 79.9515C51.2876 79.8211 50.9834 79.7774 50.6252 79.8202Z" />
<path d="M40.0366 78.8087C40.6591 78.9266 41.1683 79.169 41.5644 79.536C41.9571 79.9053 42.2261 80.3625 42.3716 80.9076C42.517 81.4527 42.5287 82.0476 42.4067 82.6924C42.283 83.3456 42.051 83.8987 41.7108 84.3519C41.37 84.8078 40.9497 85.1345 40.4497 85.3318C39.9497 85.5292 39.3968 85.5705 38.7911 85.4558C38.3026 85.3634 37.8844 85.1902 37.5363 84.9363C37.1877 84.6853 36.9268 84.3757 36.7537 84.0075C36.5777 83.6388 36.5084 83.2339 36.5456 82.7928L37.764 83.0234C37.7739 83.3376 37.8783 83.6263 38.0771 83.8894C38.2732 84.1521 38.5708 84.3212 38.9699 84.3968C39.3189 84.4628 39.6419 84.4286 39.9392 84.294C40.2332 84.1617 40.4847 83.9405 40.6938 83.6302C40.9023 83.3227 41.05 82.9401 41.1366 82.4823C41.2254 82.0134 41.2309 81.5952 41.153 81.2277C41.0751 80.8602 40.9241 80.5583 40.6999 80.3222C40.4729 80.0855 40.1822 79.9336 39.8277 79.8664C39.5904 79.8215 39.3673 79.8241 39.1583 79.8742C38.946 79.9265 38.7587 80.0226 38.5963 80.1624C38.4311 80.3017 38.3001 80.4822 38.2032 80.7039L36.9848 80.4732C37.1082 80.0657 37.3139 79.7201 37.6018 79.4363C37.8897 79.1526 38.2412 78.9531 38.6562 78.838C39.0685 78.7223 39.5286 78.7125 40.0366 78.8087Z" />
<path d="M30.57 75.7534C31.1338 76.0666 31.5524 76.4568 31.8258 76.924C32.0954 77.3922 32.2186 77.9075 32.1954 78.4699C32.1684 79.0333 31.99 79.6118 31.6602 80.2054C31.3346 80.7914 30.9384 81.2473 30.4715 81.5729C30.0021 81.8971 29.5003 82.0749 28.9661 82.1064C28.4294 82.1365 27.8954 82.0039 27.3639 81.7086C27.0411 81.5293 26.7578 81.302 26.5142 81.0269C26.2705 80.7518 26.0917 80.4331 25.9778 80.0708C25.8638 79.7085 25.8387 79.3062 25.9025 78.8639C25.9648 78.424 26.1402 77.9446 26.4285 77.4256L26.6479 77.0307L31.1962 79.5576L30.7327 80.392L27.2758 78.4715C27.113 78.7645 27.0284 79.0572 27.0221 79.3494C27.0143 79.6441 27.0819 79.9172 27.2249 80.1689C27.3653 80.4192 27.5796 80.6243 27.8676 80.7844C28.1805 80.9582 28.4965 81.033 28.8155 81.0087C29.1306 80.9855 29.4198 80.8862 29.683 80.7107C29.9424 80.5363 30.1514 80.3063 30.3101 80.0208L30.6722 79.3689C30.8847 78.9864 30.9984 78.6238 31.0133 78.2811C31.0257 77.937 30.9496 77.6266 30.7848 77.3499C30.6187 77.0756 30.373 76.8481 30.0477 76.6673C29.8366 76.5501 29.6276 76.4729 29.4206 76.436C29.2123 76.4015 29.011 76.4099 28.8168 76.4612C28.6225 76.5125 28.4422 76.609 28.2758 76.7505L27.3271 75.9748C27.584 75.7113 27.8866 75.5236 28.2348 75.4115C28.5792 75.3006 28.9511 75.2716 29.3507 75.3246C29.7464 75.3787 30.1528 75.5217 30.57 75.7534Z" />
<path d="M16.6878 71.2171L17.6209 71.9276C17.545 72.0632 17.4936 72.2149 17.4667 72.3827C17.4378 72.5484 17.4518 72.7249 17.5085 72.9122C17.5652 73.0994 17.6831 73.2902 17.8622 73.4845C18.1067 73.7497 18.3704 73.9163 18.6531 73.9841C18.9337 74.0538 19.167 74.003 19.3529 73.8316C19.5138 73.6833 19.5884 73.5044 19.5768 73.2949C19.5652 73.0853 19.4685 72.819 19.2866 72.4959L18.7573 71.5697C18.4515 71.0325 18.3049 70.5571 18.3178 70.1435C18.3306 69.7298 18.5072 69.3661 18.8477 69.0522C19.1359 68.7865 19.4699 68.6332 19.8495 68.5924C20.2251 68.5513 20.6134 68.6204 21.0142 68.7996C21.4131 68.9766 21.7916 69.2594 22.1498 69.6479C22.6466 70.1869 22.937 70.7325 23.0211 71.2847C23.1031 71.839 22.9667 72.3511 22.6118 72.8212L21.6392 72.0428C21.8233 71.7688 21.895 71.4882 21.8544 71.2011C21.8117 70.9159 21.6604 70.6323 21.4005 70.3503C21.1174 70.0432 20.8275 69.8565 20.5306 69.7902C20.2316 69.7257 19.9892 69.7792 19.8033 69.9506C19.6529 70.0892 19.5785 70.2621 19.5802 70.4692C19.5799 70.6743 19.6595 70.9158 19.8191 71.1937L20.3914 72.173C20.7031 72.7164 20.8463 73.1987 20.8211 73.6199C20.794 74.039 20.6092 74.4064 20.2666 74.7222C19.9826 74.9841 19.6608 75.1338 19.3014 75.1715C18.942 75.2092 18.5738 75.1429 18.1967 74.9728C17.8175 74.8045 17.4614 74.5397 17.1283 74.1784C16.6488 73.6583 16.3842 73.1449 16.3345 72.6382C16.2826 72.1335 16.4004 71.6598 16.6878 71.2171Z" />
<path d="M13.5695 54.9508L14.1421 57.7175L5.59595 59.4862L5.00521 56.6319C4.8319 55.7946 4.85415 55.04 5.07196 54.3683C5.28699 53.6972 5.67994 53.1357 6.25079 52.6839C6.81828 52.2299 7.54575 51.9111 8.43319 51.7274C9.32342 51.5432 10.1221 51.5476 10.8294 51.7407C11.536 51.9309 12.1251 52.2964 12.5968 52.837C13.0656 53.3782 13.3899 54.0828 13.5695 54.9508ZM12.7485 56.6612L12.4575 55.2549C12.3228 54.604 12.0884 54.0882 11.7543 53.7077C11.4175 53.3277 10.9932 53.079 10.4815 52.9615C9.96701 52.8446 9.37176 52.8561 8.69575 52.996C8.0253 53.1348 7.47856 53.3596 7.05552 53.6706C6.63191 53.9787 6.34256 54.3679 6.18748 54.8381C6.03239 55.3082 6.01933 55.8549 6.1483 56.478L6.45577 57.9636L12.7485 56.6612Z" />
<path d="M12.8488 43.0615C12.7516 43.699 12.5317 44.2273 12.1891 44.6464C11.8441 45.0622 11.404 45.3572 10.8688 45.5314C10.3312 45.7023 9.72683 45.7367 9.0556 45.6344C8.3928 45.5333 7.82748 45.3207 7.35962 44.9965C6.89219 44.6695 6.55068 44.2611 6.33509 43.7713C6.11992 43.2788 6.05814 42.732 6.14975 42.1309C6.2054 41.7658 6.31971 41.4212 6.4927 41.0969C6.66569 40.7727 6.90213 40.4941 7.20204 40.261C7.50194 40.028 7.8703 39.8643 8.30711 39.77C8.74112 39.6752 9.25161 39.6725 9.83858 39.762L10.2851 39.8301L9.50113 44.9738L8.55749 44.8299L9.15335 40.9206C8.82195 40.87 8.51819 40.8927 8.24207 40.9886C7.96315 41.084 7.73064 41.2425 7.54455 41.4642C7.35888 41.683 7.24123 41.9553 7.19157 42.2811C7.13763 42.635 7.17761 42.9572 7.3115 43.2477C7.44301 43.535 7.63686 43.7715 7.89307 43.9571C8.1469 44.1395 8.4353 44.2553 8.75827 44.3045L9.4955 44.4169C9.928 44.4828 10.3075 44.463 10.6339 44.3576C10.9608 44.2494 11.2252 44.0698 11.4272 43.819C11.6265 43.5677 11.7541 43.2582 11.8102 42.8902C11.8466 42.6515 11.846 42.4287 11.8086 42.2219C11.7684 42.0146 11.6903 41.8288 11.5746 41.6646C11.4588 41.5004 11.3056 41.365 11.1149 41.2583L11.5115 40.0989C11.848 40.2479 12.1294 40.4661 12.3557 40.7534C12.5797 41.0376 12.7364 41.3762 12.8259 41.7691C12.9131 42.1589 12.9207 42.5897 12.8488 43.0615Z" />
<path d="M12.2648 28.458L11.9227 29.5798C11.7692 29.5557 11.6091 29.5602 11.4424 29.5933C11.277 29.6237 11.1163 29.6981 10.9604 29.8163C10.8045 29.9346 10.6666 30.1114 10.5466 30.3468C10.3828 30.6683 10.3182 30.9733 10.3528 31.262C10.3849 31.5494 10.5136 31.7505 10.7389 31.8653C10.9338 31.9646 11.1275 31.9724 11.32 31.8888C11.5125 31.8051 11.7286 31.6219 11.9683 31.3392L12.6531 30.5211C13.0506 30.0477 13.4455 29.7452 13.8378 29.6135C14.2301 29.4818 14.6326 29.5211 15.0452 29.7314C15.3945 29.9094 15.6542 30.1693 15.8244 30.5111C15.9933 30.8491 16.0634 31.2371 16.0346 31.6752C16.0072 32.1108 15.8735 32.564 15.6336 33.0348C15.3008 33.6878 14.89 34.1497 14.4013 34.4204C13.9101 34.6898 13.3825 34.7398 12.8184 34.5703L13.2105 33.3879C13.5313 33.4653 13.8193 33.4351 14.0745 33.2973C14.3271 33.1582 14.5405 32.9178 14.7147 32.5761C14.9043 32.204 14.9786 31.8673 14.9377 31.5658C14.8943 31.2631 14.76 31.0543 14.5347 30.9395C14.3525 30.8467 14.1645 30.837 13.9708 30.9105C13.7784 30.9814 13.5796 31.14 13.3745 31.3861L12.655 32.263C12.2536 32.744 11.8511 33.0459 11.4474 33.1686C11.045 33.2887 10.6362 33.243 10.2211 33.0315C9.87688 32.8561 9.62468 32.6064 9.46453 32.2824C9.30439 31.9585 9.2386 31.5902 9.26717 31.1775C9.29321 30.7635 9.4178 30.3375 9.64096 29.8996C9.96214 29.2694 10.3516 28.8429 10.8095 28.6203C11.2648 28.3963 11.7499 28.3422 12.2648 28.458Z" />
<path d="M19.2993 26.6839L14.3235 22.4313L15.1513 21.4627L20.1271 25.7153L19.2993 26.6839ZM13.9738 21.286C13.8299 21.4545 13.6501 21.5512 13.4344 21.5761C13.2184 21.5971 13.0316 21.5402 12.8739 21.4054C12.7141 21.2689 12.6288 21.0932 12.6181 20.8784C12.607 20.6597 12.6734 20.4661 12.8174 20.2976C12.9613 20.1292 13.1413 20.0345 13.3573 20.0135C13.5729 19.9885 13.7607 20.0444 13.9205 20.1809C14.0781 20.3157 14.1625 20.4924 14.1736 20.7112C14.1844 20.926 14.1178 21.1176 13.9738 21.286Z" />
<path d="M26.8543 22.7752C26.4278 23.0725 26.0218 23.2725 25.6362 23.3751C25.2529 23.476 24.9004 23.5019 24.5786 23.4526C24.2568 23.4034 23.9718 23.3025 23.7235 23.1501L24.3636 22.1532C24.498 22.2119 24.6574 22.2618 24.8419 22.3028C25.0303 22.3446 25.2439 22.3429 25.4825 22.2978C25.7235 22.251 25.9885 22.1269 26.2774 21.9254C26.6736 21.6492 26.9336 21.3242 27.0575 20.9504C27.1829 20.579 27.0994 20.1835 26.807 19.764L26.071 18.7083L26.0045 18.7547C26.0212 18.9127 26.0189 19.1031 25.9975 19.3258C25.9785 19.5468 25.9022 19.7801 25.7686 20.0256C25.635 20.2712 25.4039 20.5085 25.0753 20.7375C24.6511 21.0332 24.1999 21.2007 23.7216 21.2398C23.2439 21.2749 22.7704 21.167 22.301 20.9159C21.8323 20.6609 21.3989 20.2479 21.0008 19.6769C20.6028 19.1059 20.3583 18.5491 20.2674 18.0064C20.1788 17.4621 20.2291 16.963 20.4182 16.5091C20.6058 16.0528 20.9151 15.6744 21.3462 15.3738C21.6795 15.1415 21.9876 15.0097 22.2707 14.9786C22.5522 14.9452 22.8011 14.962 23.0177 15.0293C23.2366 15.0948 23.4165 15.1616 23.5574 15.2296L23.6343 15.176L23.0275 14.3056L24.0517 13.5915L27.8779 19.0797C28.1996 19.5412 28.3564 19.9946 28.3484 20.44C28.3403 20.8855 28.2029 21.3068 27.9361 21.7041C27.6717 22.0997 27.3111 22.4567 26.8543 22.7752ZM24.7016 19.7098C25.0022 19.5002 25.2075 19.2532 25.3174 18.9687C25.4281 18.6804 25.4452 18.3671 25.3688 18.029C25.2931 17.687 25.1261 17.3307 24.8678 16.9602C24.6159 16.599 24.3406 16.3182 24.0416 16.118C23.7427 15.9177 23.4359 15.813 23.1213 15.8038C22.805 15.7922 22.4943 15.8929 22.189 16.1057C21.8744 16.3251 21.669 16.5894 21.573 16.8988C21.4754 17.2058 21.4697 17.5353 21.5558 17.8874C21.6443 18.2378 21.8079 18.5843 22.0468 18.9269C22.2921 19.2788 22.561 19.5502 22.8534 19.7412C23.1458 19.9321 23.4489 20.029 23.7626 20.032C24.0787 20.0333 24.3917 19.9259 24.7016 19.7098Z" />
<path d="M32.5738 12.2131L33.6207 15.9558L32.3937 16.299L30.6305 9.99552L31.8083 9.66607L32.0952 10.692L32.1732 10.6702C32.2249 10.2959 32.3769 9.96424 32.6295 9.67531C32.8847 9.38561 33.249 9.17456 33.7223 9.04217C34.1518 8.92202 34.5533 8.90708 34.9266 8.99734C35.2992 9.08487 35.6238 9.28023 35.9003 9.58342C36.1769 9.88661 36.3879 10.2981 36.5333 10.8179L37.6548 14.8274L36.4277 15.1706L35.3475 11.3089C35.2197 10.852 35.0009 10.5283 34.6909 10.3377C34.3802 10.1443 34.0169 10.1058 33.601 10.2222C33.3165 10.3017 33.0806 10.4341 32.8935 10.6192C32.709 10.8035 32.5858 11.0327 32.5238 11.3067C32.4638 11.5772 32.4804 11.8793 32.5738 12.2131Z" />
<path d="M50.0413 14.0633L52.3651 5.65112L53.6344 6.00174L52.5246 10.0189L52.6273 10.0473L57.2654 7.0048L58.8632 7.44619L54.4242 10.2961L56.5517 15.8618L55.0237 15.4397L53.3428 10.9302L52.0333 11.7975L51.3105 14.4139L50.0413 14.0633Z" />
<path d="M60.068 17.4701L63.3272 11.7938L64.4321 12.4282L61.173 18.1046L60.068 17.4701ZM64.3881 11.2383C64.1959 11.128 64.0676 10.9692 64.0032 10.7618C63.9427 10.5535 63.964 10.3594 64.0673 10.1795C64.172 9.99719 64.3288 9.88088 64.5379 9.83056C64.7508 9.7792 64.9534 9.80869 65.1456 9.91903C65.3377 10.0294 65.4641 10.1887 65.5246 10.3971C65.589 10.6044 65.5689 10.7992 65.4642 10.9816C65.3609 11.1614 65.2028 11.277 64.9899 11.3284C64.7808 11.3787 64.5802 11.3487 64.3881 11.2383Z" />
<path d="M71.4796 17.4788L70.803 18.2457L68.1219 15.8805L68.7985 15.1136L71.4796 17.4788ZM70.5549 14.5719L71.5104 15.4148L67.4142 20.058C67.2507 20.2433 67.1553 20.4073 67.128 20.5499C67.1026 20.6904 67.1185 20.8162 67.1758 20.9273C67.237 21.0382 67.3199 21.1397 67.4243 21.2318C67.501 21.2995 67.5728 21.3533 67.6397 21.3934C67.7066 21.4335 67.7589 21.4645 67.7965 21.4863L67.2727 22.4278C67.1985 22.4002 67.1009 22.352 66.9798 22.2831C66.8569 22.2163 66.7178 22.1163 66.5625 21.9831C66.3074 21.7656 66.1125 21.5142 65.9779 21.2287C65.8433 20.9433 65.7954 20.6434 65.834 20.329C65.8727 20.0146 66.0227 19.7093 66.2839 19.4132L70.5549 14.5719Z" />
</svg>
