<svg width="25" height="24" viewBox="0 0 25 24" xmlns="http://www.w3.org/2000/svg">
<path d="M20.1099 19.2599H11.0399C10.5899 19.2599 10.2199 18.8899 10.2199 18.4399C10.2199 17.9899 10.5899 17.6199 11.0399 17.6199H20.1099C20.5599 17.6199 20.9299 17.9899 20.9299 18.4399C20.9299 18.8999 20.5599 19.2599 20.1099 19.2599Z"/>
<path d="M20.1099 12.9699H11.0399C10.5899 12.9699 10.2199 12.5999 10.2199 12.1499C10.2199 11.6999 10.5899 11.3299 11.0399 11.3299H20.1099C20.5599 11.3299 20.9299 11.6999 20.9299 12.1499C20.9299 12.5999 20.5599 12.9699 20.1099 12.9699Z"/>
<path d="M20.1099 6.66992H11.0399C10.5899 6.66992 10.2199 6.29992 10.2199 5.84992C10.2199 5.39992 10.5899 5.02992 11.0399 5.02992H20.1099C20.5599 5.02992 20.9299 5.39992 20.9299 5.84992C20.9299 6.29992 20.5599 6.66992 20.1099 6.66992Z"/>
<path d="M5.01992 8.02992C4.79992 8.02992 4.58992 7.93992 4.43992 7.78992L3.52992 6.87992C3.20992 6.55992 3.20992 6.03992 3.52992 5.71992C3.84992 5.39992 4.36992 5.39992 4.68992 5.71992L5.01992 6.04992L7.15992 3.90992C7.47992 3.58992 7.99992 3.58992 8.31992 3.90992C8.63992 4.22992 8.63992 4.74992 8.31992 5.06992L5.59992 7.78992C5.43992 7.93992 5.23992 8.02992 5.01992 8.02992Z"/>
<path d="M5.01992 14.3299C4.80992 14.3299 4.59992 14.2499 4.43992 14.0899L3.52992 13.1799C3.20992 12.8599 3.20992 12.3399 3.52992 12.0199C3.84992 11.6999 4.36992 11.6999 4.68992 12.0199L5.01992 12.3499L7.15992 10.2099C7.47992 9.88992 7.99992 9.88992 8.31992 10.2099C8.63992 10.5299 8.63992 11.0499 8.31992 11.3699L5.59992 14.0899C5.43992 14.2499 5.22992 14.3299 5.01992 14.3299Z"/>
<path d="M5.01992 20.3299C4.80992 20.3299 4.59992 20.2499 4.43992 20.0899L3.52992 19.1799C3.20992 18.8599 3.20992 18.3399 3.52992 18.0199C3.84992 17.6999 4.36992 17.6999 4.68992 18.0199L5.01992 18.3499L7.15992 16.2099C7.47992 15.8899 7.99992 15.8899 8.31992 16.2099C8.63992 16.5299 8.63992 17.0499 8.31992 17.3699L5.59992 20.0899C5.43992 20.2499 5.22992 20.3299 5.01992 20.3299Z"/>
</svg>
