<svg width="16" height="17" viewBox="0 0 16 17" xmlns="http://www.w3.org/2000/svg">
<path fill-rule="evenodd" clip-rule="evenodd" d="M5.02022 2.81562C5.21548 3.01088 5.21548 3.32747 5.02022 3.52273L3.02022 5.52273C2.82496 5.71799 2.50838 5.71799 2.31311 5.52273L1.64645 4.85606C1.45118 4.6608 1.45118 4.34422 1.64645 4.14895C1.84171 3.95369 2.15829 3.95369 2.35355 4.14895L2.66667 4.46207L4.31311 2.81562C4.50838 2.62036 4.82496 2.62036 5.02022 2.81562ZM6.83333 4.50251C6.83333 4.22637 7.05719 4.00251 7.33333 4.00251H14C14.2761 4.00251 14.5 4.22637 14.5 4.50251C14.5 4.77865 14.2761 5.00251 14 5.00251H7.33333C7.05719 5.00251 6.83333 4.77865 6.83333 4.50251ZM5.02022 7.48229C5.21548 7.67755 5.21548 7.99413 5.02022 8.18939L3.02022 10.1894C2.82496 10.3847 2.50838 10.3847 2.31311 10.1894L1.64645 9.52273C1.45118 9.32747 1.45118 9.01088 1.64645 8.81562C1.84171 8.62036 2.15829 8.62036 2.35355 8.81562L2.66667 9.12873L4.31311 7.48229C4.50838 7.28702 4.82496 7.28702 5.02022 7.48229ZM6.83333 9.16917C6.83333 8.89303 7.05719 8.66917 7.33333 8.66917H14C14.2761 8.66917 14.5 8.89303 14.5 9.16917C14.5 9.44532 14.2761 9.66917 14 9.66917H7.33333C7.05719 9.66917 6.83333 9.44532 6.83333 9.16917ZM5.02022 12.149C5.21548 12.3442 5.21548 12.6608 5.02022 12.8561L3.02022 14.8561C2.92645 14.9498 2.79927 15.0025 2.66667 15.0025C2.53406 15.0025 2.40688 14.9498 2.31311 14.8561L1.64645 14.1894C1.45118 13.9941 1.45118 13.6775 1.64645 13.4823C1.84171 13.287 2.15829 13.287 2.35355 13.4823L2.66667 13.7954L4.31311 12.149C4.50838 11.9537 4.82496 11.9537 5.02022 12.149ZM6.83333 13.8358C6.83333 13.5597 7.05719 13.3358 7.33333 13.3358H14C14.2761 13.3358 14.5 13.5597 14.5 13.8358C14.5 14.112 14.2761 14.3358 14 14.3358H7.33333C7.05719 14.3358 6.83333 14.112 6.83333 13.8358Z" />
</svg>
