<svg width="16" height="16" viewBox="0 0 16 16" xmlns="http://www.w3.org/2000/svg">
<path fill-rule="evenodd" clip-rule="evenodd" d="M4.58666 2.16667C4.12947 2.16667 3.75333 2.54281 3.75333 3V7.5H7.99999C8.00046 7.5 8.00092 7.5 8.00139 7.5C9.47127 7.49924 10.6667 6.30339 10.6667 4.83333C10.6667 3.36281 9.47052 2.16667 7.99999 2.16667H4.58666ZM10.412 7.59353C11.1806 6.92107 11.6667 5.93322 11.6667 4.83333C11.6667 2.81052 10.0228 1.16667 7.99999 1.16667H4.58666C3.57718 1.16667 2.75333 1.99052 2.75333 3V13C2.75333 14.0095 3.57718 14.8333 4.58666 14.8333H9.58666C11.6095 14.8333 13.2533 13.1895 13.2533 11.1667C13.2533 9.42758 12.0383 7.96859 10.412 7.59353ZM8.00163 8.5C8.00108 8.5 8.00054 8.5 7.99999 8.5H3.75333V13C3.75333 13.4572 4.12947 13.8333 4.58666 13.8333H9.58666C11.0572 13.8333 12.2533 12.6372 12.2533 11.1667C12.2533 9.69614 11.0572 8.5 9.58666 8.5H8.00163Z"/>
</svg>
