<svg width="16" height="16" viewBox="0 0 16 16" xmlns="http://www.w3.org/2000/svg">
<path fill-rule="evenodd" clip-rule="evenodd" d="M3.33334 1.5C3.60949 1.5 3.83334 1.72386 3.83334 2V6.66667C3.83334 8.97052 5.69615 10.8333 8.00001 10.8333C10.3039 10.8333 12.1667 8.97052 12.1667 6.66667V2C12.1667 1.72386 12.3905 1.5 12.6667 1.5C12.9428 1.5 13.1667 1.72386 13.1667 2V6.66667C13.1667 9.52281 10.8562 11.8333 8.00001 11.8333C5.14387 11.8333 2.83334 9.52281 2.83334 6.66667V2C2.83334 1.72386 3.0572 1.5 3.33334 1.5ZM2.83334 14C2.83334 13.7239 3.0572 13.5 3.33334 13.5H12.6667C12.9428 13.5 13.1667 13.7239 13.1667 14C13.1667 14.2761 12.9428 14.5 12.6667 14.5H3.33334C3.0572 14.5 2.83334 14.2761 2.83334 14Z" />
</svg>
