<svg width="16" height="16" viewBox="0 0 16 16" xmlns="http://www.w3.org/2000/svg">
<path fill-rule="evenodd" clip-rule="evenodd" d="M9.48879 1.5H6.41333C6.13719 1.5 5.91333 1.72385 5.91333 2C5.91333 2.27614 6.13719 2.5 6.41333 2.5H8.85961L6.10961 13.5H3.41333C3.13719 13.5 2.91333 13.7239 2.91333 14C2.91333 14.2761 3.13719 14.5 3.41333 14.5H6.48954C6.49678 14.5002 6.50401 14.5002 6.51121 14.5H9.58C9.85614 14.5 10.08 14.2761 10.08 14C10.08 13.7239 9.85614 13.5 9.58 13.5H7.14039L9.89039 2.5H12.58C12.8561 2.5 13.08 2.27614 13.08 2C13.08 1.72385 12.8561 1.5 12.58 1.5H9.51046C9.50322 1.49984 9.49599 1.49984 9.48879 1.5Z"/>
</svg>
