<svg viewBox="0 0 16 16" xmlns="http://www.w3.org/2000/svg">
<path d="M7.99967 1.33331C4.32634 1.33331 1.33301 4.32665 1.33301 7.99998C1.33301 11.6733 4.32634 14.6666 7.99967 14.6666C11.673 14.6666 14.6663 11.6733 14.6663 7.99998C14.6663 4.32665 11.673 1.33331 7.99967 1.33331ZM11.1863 6.46665L7.40634 10.2466C7.31301 10.34 7.18634 10.3933 7.05301 10.3933C6.91967 10.3933 6.79301 10.34 6.69967 10.2466L4.81301 8.35998C4.61967 8.16665 4.61967 7.84665 4.81301 7.65331C5.00634 7.45998 5.32634 7.45998 5.51967 7.65331L7.05301 9.18665L10.4797 5.75998C10.673 5.56665 10.993 5.56665 11.1863 5.75998C11.3797 5.95331 11.3797 6.26665 11.1863 6.46665Z" />
</svg>
