<svg xmlns="http://www.w3.org/2000/svg" xmlns:xlink="http://www.w3.org/1999/xlink"><defs><symbol viewBox="0 0 24 24" id="7spaces"><path d="M4.97 24l12-12L24 4.97 19.03 0H4.97v7.03H12l-12 12L4.97 24z" /><path d="M24 12h-7.03v7.03H24V12z" /></symbol><symbol viewBox="0 0 24 24" id="arrow-circle-down"><path d="M12 2C6.49 2 2 6.49 2 12s4.49 10 10 10 10-4.49 10-10S17.51 2 12 2zm4.06 9.27l-3.53 3.53c-.15.15-.34.22-.53.22s-.38-.07-.53-.22l-3.53-3.53a.754.754 0 010-1.06c.29-.29.77-.29 1.06 0l3 3 3-3c.29-.29.77-.29 1.06 0 .29.29.29.76 0 1.06z" /></symbol><symbol viewBox="0 0 24 24" id="arrow-down"><path fill-rule="evenodd" clip-rule="evenodd" d="M3.55 8.42a.75.75 0 011.06 0l6.52 6.52a1.236 1.236 0 001.74 0l6.52-6.52a.75.75 0 011.06 1.06L13.93 16a2.736 2.736 0 01-3.86 0L3.55 9.48a.75.75 0 010-1.06z" /></symbol><symbol viewBox="0 0 16 17" id="attach-square"><path fill-rule="evenodd" clip-rule="evenodd" d="M2.063 2.899c.89-.89 2.221-1.23 3.937-1.23h4c1.716 0 3.047.34 3.937 1.23.89.89 1.23 2.22 1.23 3.937v4c0 1.716-.34 3.047-1.23 3.937-.89.89-2.221 1.23-3.937 1.23H6c-1.716 0-3.047-.34-3.937-1.23-.89-.89-1.23-2.221-1.23-3.937v-4c0-1.716.34-3.047 1.23-3.937zm.707.707c-.61.61-.937 1.612-.937 3.23v4c0 1.617.327 2.62.937 3.23.61.61 1.613.936 3.23.936h4c1.617 0 2.62-.326 3.23-.936.61-.61.937-1.613.937-3.23v-4c0-1.618-.327-2.62-.937-3.23-.61-.61-1.613-.937-3.23-.937H6c-1.617 0-2.62.327-3.23.937zm3.664 2.315a3.172 3.172 0 014.48.001v.001a3.172 3.172 0 010 4.48l-1.48 1.48a1.836 1.836 0 01-2.594 0 1.836 1.836 0 010-2.594l.94-.94a.5.5 0 01.707.707l-.94.94a.836.836 0 000 1.18.836.836 0 001.18 0l1.48-1.48a2.172 2.172 0 00-.001-3.067 2.172 2.172 0 00-3.066.001L5.527 8.243a1.785 1.785 0 000 2.526.5.5 0 11-.707.707 2.785 2.785 0 010-3.94l1.613-1.614h.001z" /></symbol><symbol fill="none" viewBox="0 0 10 8" id="check"><path d="M9.382 1.886L4.184 7.083a.687.687 0 01-.971 0L.618 4.49a.692.692 0 010-.971.692.692 0 01.972 0l2.108 2.108L8.41.914a.692.692 0 01.972 0 .692.692 0 010 .972z" fill="#fff" /></symbol><symbol viewBox="0 0 24 24" id="close-circle"><path d="M12 2C6.49 2 2 6.49 2 12s4.49 10 10 10 10-4.49 10-10S17.51 2 12 2zm3.36 12.3c.29.29.29.77 0 1.06-.15.15-.34.22-.53.22s-.38-.07-.53-.22l-2.3-2.3-2.3 2.3c-.15.15-.34.22-.53.22s-.38-.07-.53-.22a.754.754 0 010-1.06l2.3-2.3-2.3-2.3a.754.754 0 010-1.06c.29-.29.77-.29 1.06 0l2.3 2.3 2.3-2.3c.29-.29.77-.29 1.06 0 .29.29.29.77 0 1.06l-2.3 2.3 2.3 2.3z" /></symbol><symbol viewBox="0 0 16 16" id="divider"><path fill-rule="evenodd" clip-rule="evenodd" d="M8 1a.5.5 0 01.5.5v13a.5.5 0 01-1 0v-13A.5.5 0 018 1z" /></symbol><symbol viewBox="0 0 24 24" id="eye"><path d="M21.25 9.15C18.94 5.52 15.56 3.43 12 3.43c-1.78 0-3.51.52-5.09 1.49-1.58.98-3 2.41-4.16 4.23-1 1.57-1 4.12 0 5.69 2.31 3.64 5.69 5.72 9.25 5.72 1.78 0 3.51-.52 5.09-1.49 1.58-.98 3-2.41 4.16-4.23 1-1.56 1-4.12 0-5.69zM12 16.04c-2.24 0-4.04-1.81-4.04-4.04S9.76 7.96 12 7.96s4.04 1.81 4.04 4.04-1.8 4.04-4.04 4.04z" /><path d="M12 9.14a2.855 2.855 0 000 5.71c1.57 0 2.86-1.28 2.86-2.85S13.57 9.14 12 9.14z" /></symbol><symbol viewBox="0 0 24 24" id="eye-slash"><path d="M21.27 9.18c-.29-.46-.6-.89-.92-1.29a1 1 0 00-1.49-.09l-3 3c.22.66.26 1.42.06 2.21a4.021 4.021 0 01-2.9 2.9c-.79.2-1.55.16-2.21-.06l-2.46 2.46c-.5.5-.34 1.38.33 1.64 1.07.41 2.18.62 3.32.62 1.78 0 3.51-.52 5.09-1.49 1.61-1 3.06-2.47 4.23-4.34.95-1.51.9-4.05-.05-5.56z" /><path d="M14.86 12c0 1.57-1.28 2.86-2.86 2.86-.06 0-.11 0-.17-.02l3.01-3.01c.02.06.02.11.02.17z" /><path fill-rule="evenodd" d="M20.68 2.23c.3-.3.79-.3 1.09 0 .31.3.31.78 0 1.08L3.31 21.77a.758.758 0 01-1.08.01c-.3-.3-.3-.79 0-1.09l2.94-2.941a14.66 14.66 0 01-2.42-2.909c-1-1.57-1-4.12 0-5.69C3.91 7.33 5.33 5.9 6.91 4.92c1.58-.96 3.31-1.49 5.09-1.49 1.986 0 3.917.65 5.63 1.852l3.05-3.052zm-6.413 6.416A4.018 4.018 0 0012 7.96c-2.24 0-4.04 1.81-4.04 4.04 0 .842.254 1.621.69 2.266l.864-.864A2.844 2.844 0 019.14 12c0-1.57 1.28-2.86 2.86-2.86.504 0 .984.138 1.4.374l.867-.868z" clip-rule="evenodd" /></symbol><symbol viewBox="0 0 24 24" id="heart"><path d="M16.44 3.1c-1.81 0-3.43.88-4.44 2.23A5.549 5.549 0 007.56 3.1C4.49 3.1 2 5.6 2 8.69c0 1.19.19 2.29.52 3.31 1.58 5 6.45 7.99 8.86 8.81.34.12.9.12 1.24 0 2.41-.82 7.28-3.81 8.86-8.81.33-1.02.52-2.12.52-3.31 0-3.09-2.49-5.59-5.56-5.59z" /></symbol><symbol viewBox="0 0 16 16" id="info-circle"><path d="M8 1.333C4.326 1.333 1.333 4.327 1.333 8c0 3.673 2.993 6.667 6.667 6.667 3.673 0 6.666-2.994 6.666-6.667 0-3.673-2.993-6.667-6.666-6.667zm-.5 4c0-.273.226-.5.5-.5.273 0 .5.227.5.5v3.334c0 .273-.227.5-.5.5a.504.504 0 01-.5-.5V5.333zm1.113 5.587a.69.69 0 01-.14.22.771.771 0 01-.22.14.664.664 0 01-.253.053.664.664 0 01-.254-.053.771.771 0 01-.22-.14.69.69 0 01-.14-.22.664.664 0 01-.053-.253c0-.087.02-.174.053-.254a.77.77 0 01.14-.22.77.77 0 01.22-.14.667.667 0 01.507 0 .77.77 0 01.22.14.77.77 0 01.14.22c.033.08.053.167.053.254 0 .086-.02.173-.053.253z" /></symbol><symbol viewBox="0 0 16 17" id="link-2"><path fill-rule="evenodd" clip-rule="evenodd" d="M12.367 4.47a3.502 3.502 0 10-4.953 4.952.5.5 0 01-.708.707 4.508 4.508 0 010-6.366c1.756-1.764 4.606-1.754 6.367-.001 1.764 1.756 1.754 4.606.001 6.367a.5.5 0 11-.708-.706 3.502 3.502 0 00.001-4.953zM3.641 7.776a.5.5 0 01-.002.708 3.333 3.333 0 004.715 4.71 3.326 3.326 0 000-4.711.5.5 0 01.706-.707 4.327 4.327 0 010 6.127c-1.694 1.687-4.437 1.697-6.128-.001-1.686-1.694-1.696-4.437.002-6.127a.5.5 0 01.707.001z" /></symbol><symbol viewBox="0 0 24 24" id="mask"><path d="M12 2C6.48 2 2 6.48 2 12s4.48 10 10 10 10-4.48 10-10S17.52 2 12 2zm0 15c-2.76 0-5-2.24-5-5s2.24-5 5-5 5 2.24 5 5-2.24 5-5 5z" /><path d="M12 7v10c-2.76 0-5-2.24-5-5s2.24-5 5-5z" /></symbol><symbol viewBox="0 0 24 24" id="menu"><path d="M20 19.26H4.004c-.45 0-.82-.37-.82-.82 0-.45.37-.82.82-.82H20c.45 0 .82.37.82.82 0 .46-.37.82-.82.82zM20 12.97H4.004c-.45 0-.82-.37-.82-.82 0-.45.37-.82.82-.82H20c.45 0 .82.37.82.82 0 .45-.37.82-.82.82zM20 6.67H4.004c-.45 0-.82-.37-.82-.82 0-.45.37-.82.82-.82H20c.45 0 .82.37.82.82 0 .45-.37.82-.82.82z" /></symbol><symbol viewBox="0 0 24 24" id="menu-close"><path d="M18.237 7.074L6.926 18.385a.824.824 0 01-1.16 0 .824.824 0 010-1.16l11.312-11.31a.824.824 0 011.16 0 .824.824 0 010 1.16z" /><path d="M17.078 18.385L5.766 7.075a.824.824 0 010-1.16.824.824 0 011.16 0l11.311 11.31a.824.824 0 010 1.16.824.824 0 01-1.16 0z" /></symbol><symbol viewBox="0 0 16 17" id="quote-down-square"><path fill-rule="evenodd" clip-rule="evenodd" d="M2.063 2.899c.89-.89 2.221-1.23 3.937-1.23h4c1.716 0 3.047.34 3.937 1.23.89.89 1.23 2.22 1.23 3.937v4c0 1.716-.34 3.047-1.23 3.937-.89.89-2.221 1.23-3.937 1.23H6c-1.716 0-3.047-.34-3.937-1.23-.89-.89-1.23-2.221-1.23-3.937v-4c0-1.716.34-3.047 1.23-3.937zm.707.707c-.61.61-.937 1.612-.937 3.23v4c0 1.617.327 2.62.937 3.23.61.61 1.613.936 3.23.936h4c1.617 0 2.62-.326 3.23-.936.61-.61.937-1.613.937-3.23v-4c0-1.618-.327-2.62-.937-3.23-.61-.61-1.613-.937-3.23-.937H6c-1.617 0-2.62.327-3.23.937zm3.72 2.288a.5.5 0 01-.175.685c-.532.315-.764.49-.908.746-.12.214-.201.53-.23 1.118h1.276c.766 0 1.294.6 1.294 1.293v.993c0 .693-.528 1.294-1.294 1.294H5.46a1.3 1.3 0 01-1.293-1.294V8.943c0-.94.082-1.597.368-2.107.29-.52.755-.812 1.27-1.117a.5.5 0 01.685.175zM5.167 9.443v1.286a.3.3 0 00.293.294h.993c.181 0 .294-.12.294-.294v-.993c0-.174-.113-.293-.294-.293H5.167zm5.416-3.549a.5.5 0 01-.175.685c-.531.315-.764.49-.908.746-.12.214-.201.53-.23 1.118h1.276c.766 0 1.294.6 1.294 1.293v.993c0 .693-.528 1.294-1.294 1.294h-.993a1.3 1.3 0 01-1.293-1.294V8.943c0-.94.082-1.597.368-2.106.291-.52.755-.813 1.27-1.118a.5.5 0 01.685.175zM9.26 9.443v1.286a.3.3 0 00.293.294h.993c.181 0 .294-.12.294-.294v-.993c0-.174-.113-.293-.294-.293H9.26z" /></symbol><symbol viewBox="0 0 20 20" id="star"><path d="M12.825 4.342L14 6.692c.158.325.583.633.942.7l2.125.35c1.358.225 1.675 1.208.7 2.191l-1.659 1.659c-.275.275-.433.816-.341 1.208l.475 2.05c.375 1.617-.492 2.25-1.917 1.4l-1.992-1.183c-.358-.217-.958-.217-1.316 0L9.025 16.25c-1.425.842-2.292.217-1.917-1.4l.475-2.05c.075-.4-.083-.942-.358-1.217L5.567 9.925c-.975-.975-.659-1.958.7-2.192l2.125-.35c.358-.058.783-.375.941-.7l1.175-2.35c.642-1.266 1.675-1.266 2.317.009zM6.667 4.792h-5a.63.63 0 01-.625-.625.63.63 0 01.625-.625h5a.63.63 0 01.625.625.63.63 0 01-.625.625zM4.167 16.458h-2.5a.63.63 0 01-.625-.625.63.63 0 01.625-.625h2.5a.63.63 0 01.625.625.63.63 0 01-.625.625zM2.5 10.625h-.833A.63.63 0 011.042 10a.63.63 0 01.625-.625H2.5a.63.63 0 01.625.625.63.63 0 01-.625.625z" /></symbol><symbol viewBox="0 0 25 24" id="task"><path d="M20.11 19.26h-9.07c-.45 0-.82-.37-.82-.82 0-.45.37-.82.82-.82h9.07c.45 0 .82.37.82.82 0 .46-.37.82-.82.82zM20.11 12.97h-9.07c-.45 0-.82-.37-.82-.82 0-.45.37-.82.82-.82h9.07c.45 0 .82.37.82.82 0 .45-.37.82-.82.82zM20.11 6.67h-9.07c-.45 0-.82-.37-.82-.82 0-.45.37-.82.82-.82h9.07c.45 0 .82.37.82.82 0 .45-.37.82-.82.82zM5.02 8.03c-.22 0-.43-.09-.58-.24l-.91-.91a.82.82 0 011.16-1.16l.33.33 2.14-2.14a.82.82 0 011.16 1.16L5.6 7.79c-.16.15-.36.24-.58.24zM5.02 14.33c-.21 0-.42-.08-.58-.24l-.91-.91a.82.82 0 011.16-1.16l.33.33 2.14-2.14a.82.82 0 011.16 1.16L5.6 14.09c-.16.16-.37.24-.58.24zM5.02 20.33c-.21 0-.42-.08-.58-.24l-.91-.91a.82.82 0 011.16-1.16l.33.33 2.14-2.14a.82.82 0 011.16 1.16L5.6 20.09c-.16.16-.37.24-.58.24z" /></symbol><symbol viewBox="0 0 16 16" id="text-bold"><path fill-rule="evenodd" clip-rule="evenodd" d="M4.587 2.167A.837.837 0 003.753 3v4.5h4.248a2.67 2.67 0 002.666-2.667A2.67 2.67 0 008 2.167H4.587zm5.825 5.427a3.66 3.66 0 001.255-2.76A3.67 3.67 0 008 1.166H4.587c-1.01 0-1.834.824-1.834 1.833v10c0 1.01.824 1.833 1.834 1.833h5a3.67 3.67 0 003.666-3.666 3.672 3.672 0 00-2.841-3.573zm-2.41.906H3.753V13c0 .457.376.833.834.833h5a2.67 2.67 0 002.666-2.666A2.67 2.67 0 009.587 8.5H8.002z" /></symbol><symbol viewBox="0 0 16 16" id="text-italic"><path fill-rule="evenodd" clip-rule="evenodd" d="M9.489 1.5H6.413a.5.5 0 100 1H8.86l-2.75 11H3.413a.5.5 0 000 1H9.58a.5.5 0 000-1H7.14l2.75-11h2.69a.5.5 0 000-1H9.51a.49.49 0 00-.021 0z" /></symbol><symbol viewBox="0 0 16 16" id="text-underline"><path fill-rule="evenodd" clip-rule="evenodd" d="M3.333 1.5a.5.5 0 01.5.5v4.667A4.163 4.163 0 008 10.833a4.163 4.163 0 004.167-4.166V2a.5.5 0 111 0v4.667A5.163 5.163 0 018 11.833a5.163 5.163 0 01-5.167-5.166V2a.5.5 0 01.5-.5zm-.5 12.5a.5.5 0 01.5-.5h9.334a.5.5 0 010 1H3.333a.5.5 0 01-.5-.5z" /></symbol><symbol viewBox="0 0 16 16" id="tick-circle"><path d="M8 1.333C4.326 1.333 1.333 4.327 1.333 8c0 3.673 2.993 6.667 6.667 6.667 3.673 0 6.666-2.994 6.666-6.667 0-3.673-2.993-6.667-6.666-6.667zm3.186 5.134l-3.78 3.78a.5.5 0 01-.706 0L4.813 8.36a.503.503 0 010-.707.503.503 0 01.707 0l1.533 1.534L10.48 5.76a.503.503 0 01.706 0 .503.503 0 010 .707z" /></symbol></defs></svg>