<svg xmlns="http://www.w3.org/2000/svg" xmlns:xlink="http://www.w3.org/1999/xlink"><defs><symbol viewBox="0 0 24 24" id="7spaces"><path d="M4.97 24l12-12L24 4.97 19.03 0H4.97v7.03H12l-12 12L4.97 24z" /><path d="M24 12h-7.03v7.03H24V12z" /></symbol><symbol viewBox="0 0 91 91" id="Rotator"><path d="M77.63 52.217l6.23 5.698.061.017 1.187-4.244 1.087.304-1.553 5.557-1.125-.314-6.258-5.692.37-1.326zM72.145 75.071c.316.256.669.347 1.059.274.392-.07.767-.282 1.123-.632.255-.251.436-.51.543-.773.108-.263.146-.514.111-.756a1.087 1.087 0 00-.31-.62.973.973 0 00-.48-.281 1.3 1.3 0 00-.543.001 2.932 2.932 0 00-.547.186 5.887 5.887 0 00-.493.258l-.763.44a6.51 6.51 0 01-.805.403c-.29.122-.592.203-.903.242-.312.04-.621.013-.928-.08-.308-.09-.6-.276-.875-.555a2.319 2.319 0 01-.65-1.208c-.089-.45-.038-.924.15-1.421.187-.495.524-.981 1.01-1.46.466-.457.941-.78 1.427-.967.486-.187.958-.239 1.418-.157.461.084.886.304 1.275.659l-.942.926a1.35 1.35 0 00-.772-.347 1.656 1.656 0 00-.82.156 2.807 2.807 0 00-.77.548c-.266.261-.46.535-.586.82-.124.291-.173.57-.145.837.03.27.144.506.344.708.18.185.382.284.603.298.219.016.455-.026.709-.124.252-.096.518-.225.799-.385l.932-.523c.632-.354 1.223-.543 1.774-.567.548-.022 1.036.184 1.462.618.353.358.563.767.632 1.225.068.459.01.926-.177 1.4-.185.477-.486.92-.903 1.33-.422.415-.866.707-1.334.876-.469.17-.924.218-1.366.142a2.159 2.159 0 01-1.164-.6l.905-.89zM61.798 72.288l3.818 8.15-1.126.528-.45-.96-.097.044a3.559 3.559 0 01-.089.564c-.05.221-.158.445-.326.67-.166.229-.432.43-.8.602a2.557 2.557 0 01-1.451.237c-.49-.066-.947-.276-1.374-.631-.43-.355-.794-.852-1.094-1.492-.3-.64-.451-1.24-.452-1.798 0-.555.129-1.044.386-1.466.258-.419.627-.74 1.105-.965.36-.169.683-.246.969-.233.283.015.527.074.731.175.205.102.371.2.5.293l.07-.032-1.474-3.145 1.154-.54zm1.3 5.716a3.356 3.356 0 00-.696-1.01 1.835 1.835 0 00-.87-.492c-.31-.067-.632-.023-.964.132-.345.162-.59.388-.736.679a1.878 1.878 0 00-.172.998c.027.373.134.758.32 1.154.183.391.406.715.67.97.262.257.552.421.87.492.316.071.648.026.995-.137.335-.157.577-.376.728-.657.148-.28.21-.601.183-.965a3.328 3.328 0 00-.329-1.164zM50.779 78.772c.412-.05.793-.018 1.144.095.352.115.642.308.872.578.227.27.366.619.416 1.045.044.366.01.677-.103.93-.113.254-.28.465-.504.631a3.002 3.002 0 01-.766.41 8.052 8.052 0 01-.887.269l-.934.223c-.24.06-.41.13-.512.211-.102.081-.143.198-.125.35l.003.03c.044.369.183.643.416.821.23.178.55.243.959.195.426-.051.75-.186.973-.404.22-.216.363-.443.43-.683l1.22.13a2.303 2.303 0 01-.503 1.03 2.524 2.524 0 01-.88.645 3.709 3.709 0 01-1.1.303 3.98 3.98 0 01-.837.006 2.432 2.432 0 01-.86-.232 1.839 1.839 0 01-.713-.614c-.2-.277-.327-.652-.384-1.126l-.515-4.316 1.235-.148.107.889.05-.006c.063-.174.166-.35.31-.527a1.97 1.97 0 01.584-.468c.244-.136.546-.224.904-.267zm-.154 1.048c-.35.042-.64.147-.872.315a1.462 1.462 0 00-.507.61c-.105.241-.143.49-.112.747l.1.838a.664.664 0 01.247-.159c.123-.052.264-.101.424-.15l.47-.128.383-.097c.242-.06.46-.14.654-.237.192-.098.34-.223.445-.375.102-.15.14-.337.113-.563-.038-.313-.182-.536-.432-.67-.25-.13-.555-.174-.913-.13zM40.037 78.809c.622.118 1.131.36 1.527.727.393.37.662.826.808 1.372.145.545.157 1.14.035 1.784-.124.654-.356 1.207-.696 1.66-.341.456-.761.782-1.261.98-.5.197-1.053.239-1.659.124a3.064 3.064 0 01-1.255-.52 2.383 2.383 0 01-.782-.929 2.317 2.317 0 01-.208-1.214l1.218.23c.01.315.114.603.313.866.196.263.494.432.893.508.349.066.672.032.97-.103.293-.132.545-.353.754-.664.208-.307.356-.69.443-1.148.088-.469.094-.887.016-1.254a1.835 1.835 0 00-.453-.906 1.58 1.58 0 00-.872-.456 1.584 1.584 0 00-.67.008 1.34 1.34 0 00-.562.288c-.165.14-.296.32-.393.542l-1.218-.23a2.41 2.41 0 01.617-1.038c.288-.283.64-.483 1.054-.598.413-.116.873-.125 1.38-.03zM30.57 75.753c.564.314.982.704 1.256 1.171.27.468.393.983.37 1.546-.028.563-.206 1.142-.536 1.735-.325.586-.722 1.042-1.189 1.368-.469.324-.97.502-1.505.533-.537.03-1.07-.102-1.602-.397a3.206 3.206 0 01-.85-.682 2.6 2.6 0 01-.536-.956 2.701 2.701 0 01-.076-1.207c.063-.44.238-.92.526-1.438l.22-.395 4.548 2.527-.463.834-3.457-1.92a1.88 1.88 0 00-.254.877c-.008.295.06.568.203.82.14.25.355.455.643.615.313.174.629.249.948.225.315-.023.604-.123.867-.298a1.97 1.97 0 00.627-.69l.362-.652c.213-.383.326-.745.341-1.088a1.663 1.663 0 00-.228-.931 1.933 1.933 0 00-.737-.683 2.026 2.026 0 00-.627-.231 1.37 1.37 0 00-1.145.314l-.949-.775c.257-.264.56-.451.908-.563a2.52 2.52 0 011.116-.087c.395.054.802.197 1.219.428zM16.688 71.217l.933.71a1.366 1.366 0 00-.154.456c-.03.165-.015.342.042.53.056.186.174.377.353.572.245.265.508.431.791.5.28.069.514.018.7-.153a.651.651 0 00.224-.537c-.012-.21-.109-.476-.29-.8l-.53-.925c-.306-.537-.452-1.013-.44-1.426.014-.414.19-.778.53-1.092a1.715 1.715 0 011.002-.46c.376-.04.764.028 1.165.208.4.177.778.46 1.136.848.497.539.787 1.085.871 1.637.082.554-.054 1.066-.41 1.536l-.972-.778c.184-.274.256-.555.215-.842-.042-.285-.194-.569-.453-.85-.284-.308-.573-.495-.87-.56-.3-.065-.542-.012-.728.16a.668.668 0 00-.223.518c0 .205.08.447.24.725l.571.979c.312.543.455 1.026.43 1.447-.027.419-.212.786-.554 1.102a1.65 1.65 0 01-.966.45 2.12 2.12 0 01-1.104-.2 3.268 3.268 0 01-1.069-.794c-.48-.52-.744-1.033-.794-1.54a2.14 2.14 0 01.354-1.42zM13.57 54.95l.572 2.767-8.546 1.77-.59-2.855c-.174-.837-.152-1.592.066-2.264a3.455 3.455 0 011.179-1.684c.567-.454 1.295-.773 2.182-.957.89-.184 1.69-.18 2.396.014.707.19 1.296.555 1.768 1.096.469.541.793 1.246.973 2.114zm-.822 1.711l-.29-1.406c-.135-.651-.37-1.167-.704-1.547a2.363 2.363 0 00-1.272-.746c-.515-.117-1.11-.106-1.786.034-.67.139-1.217.364-1.64.675a2.318 2.318 0 00-.869 1.167c-.155.47-.168 1.017-.039 1.64l.308 1.486 6.292-1.303zM12.849 43.062c-.097.637-.317 1.165-.66 1.584-.345.416-.785.711-1.32.885-.538.171-1.142.206-1.813.103-.663-.1-1.229-.313-1.696-.638a2.912 2.912 0 01-1.025-1.225c-.215-.492-.277-1.039-.185-1.64.055-.365.17-.71.343-1.034.173-.324.41-.603.709-.836.3-.233.668-.397 1.105-.491.434-.095.945-.098 1.532-.008l.446.068-.784 5.144-.944-.144.596-3.91a1.879 1.879 0 00-.91.069 1.546 1.546 0 00-.698.475 1.607 1.607 0 00-.353.817c-.054.354-.014.676.12.967.131.287.325.524.581.71.254.181.542.297.865.346l.738.113c.432.066.811.046 1.138-.06.327-.108.591-.287.793-.538.2-.251.327-.56.383-.929a2.027 2.027 0 00-.001-.668 1.37 1.37 0 00-.694-.964l.397-1.16c.336.15.617.368.844.655.224.285.38.623.47 1.016.087.39.095.82.023 1.293zM12.265 28.458l-.342 1.122a1.365 1.365 0 00-.48.013c-.166.03-.327.105-.483.223a1.514 1.514 0 00-.413.53c-.164.322-.229.627-.194.916.032.287.16.488.386.603.195.1.388.107.581.024.192-.084.409-.267.648-.55l.685-.818c.398-.473.792-.776 1.185-.908.392-.131.795-.092 1.207.118.35.178.61.438.78.78.168.338.238.726.21 1.164-.028.436-.162.889-.401 1.36-.333.653-.744 1.115-1.233 1.385-.49.27-1.018.32-1.583.15l.393-1.182c.32.077.608.047.864-.09.252-.14.466-.38.64-.722.19-.372.264-.709.223-1.01-.044-.303-.178-.512-.403-.627a.669.669 0 00-.564-.029c-.193.071-.391.23-.597.476l-.719.877c-.401.481-.804.783-1.208.906-.402.12-.81.074-1.226-.137a1.65 1.65 0 01-.756-.75 2.12 2.12 0 01-.198-1.104c.026-.415.15-.84.374-1.278.321-.63.71-1.057 1.168-1.28a2.14 2.14 0 011.456-.162zM19.3 26.684l-4.977-4.253.828-.968 4.976 4.252-.828.969zm-5.326-5.398a.81.81 0 01-.54.29.72.72 0 01-.56-.17.711.711 0 01-.256-.528.802.802 0 01.2-.58.787.787 0 01.54-.284.706.706 0 01.563.167.715.715 0 01.253.53.795.795 0 01-.2.575zM26.854 22.775c-.426.298-.832.498-1.218.6a2.6 2.6 0 01-1.057.078 2.272 2.272 0 01-.855-.303l.64-.997c.134.059.293.109.478.15.188.042.402.04.64-.005.242-.047.506-.171.795-.373.397-.276.657-.6.78-.975.126-.371.042-.767-.25-1.186l-.736-1.056-.067.047a2.9 2.9 0 01-.007.57 1.796 1.796 0 01-.228.7c-.134.246-.365.484-.694.713a2.727 2.727 0 01-1.353.502c-.478.035-.952-.073-1.421-.324-.469-.255-.902-.668-1.3-1.24-.398-.57-.643-1.127-.734-1.67-.088-.544-.038-1.043.151-1.497a2.55 2.55 0 01.928-1.135c.334-.232.642-.364.925-.395.281-.034.53-.017.747.05.219.066.398.133.54.2l.076-.053-.607-.87 1.025-.714 3.826 5.488c.322.461.478.915.47 1.36a2.307 2.307 0 01-.412 1.264 4.092 4.092 0 01-1.082 1.071zm-2.152-3.065c.3-.21.505-.457.615-.741.111-.289.128-.602.052-.94-.076-.342-.243-.698-.501-1.069a3.189 3.189 0 00-.826-.842 1.728 1.728 0 00-.92-.314c-.317-.012-.628.089-.933.302-.315.22-.52.483-.616.793a1.8 1.8 0 00-.017.988c.088.35.252.697.49 1.04.246.352.515.623.807.814.293.191.596.288.91.291.316.001.629-.106.939-.322zM32.574 12.213l1.047 3.743-1.227.343-1.763-6.303 1.177-.33.287 1.026.078-.022c.052-.374.204-.706.456-.995.256-.29.62-.5 1.093-.633.43-.12.831-.135 1.205-.045.372.088.697.283.973.586.277.304.488.715.633 1.235l1.122 4.01-1.227.343-1.08-3.862c-.128-.457-.347-.78-.657-.971-.31-.194-.674-.232-1.09-.116-.285.08-.52.212-.707.397a1.378 1.378 0 00-.37.688c-.06.27-.044.572.05.906zM50.041 14.063l2.324-8.412 1.27.35-1.11 4.018.102.028 4.638-3.042 1.598.441-4.439 2.85 2.128 5.566-1.528-.422-1.681-4.51-1.31.867-.723 2.617-1.269-.35zM60.068 17.47l3.26-5.676 1.104.634-3.259 5.677-1.105-.635zm4.32-6.232a.81.81 0 01-.385-.476.72.72 0 01.064-.582.712.712 0 01.47-.35.802.802 0 01.609.089c.192.11.318.27.379.478a.706.706 0 01-.06.585.715.715 0 01-.475.346c-.21.05-.41.02-.602-.09zM71.48 17.479l-.677.767-2.681-2.365.677-.767 2.68 2.365zm-.925-2.907l.955.843-4.096 4.643c-.163.185-.259.35-.286.492a.578.578 0 00.048.377c.061.111.144.213.248.305.077.067.149.121.216.161l.156.093-.523.942a2.5 2.5 0 01-.71-.445 2.243 2.243 0 01-.585-.754 1.609 1.609 0 01-.144-.9c.039-.314.189-.62.45-.916l4.27-4.841z" /></symbol><symbol viewBox="0 0 24 24" id="arrow-circle-down"><path d="M12 2C6.49 2 2 6.49 2 12s4.49 10 10 10 10-4.49 10-10S17.51 2 12 2zm4.06 9.27l-3.53 3.53c-.15.15-.34.22-.53.22s-.38-.07-.53-.22l-3.53-3.53a.754.754 0 010-1.06c.29-.29.77-.29 1.06 0l3 3 3-3c.29-.29.77-.29 1.06 0 .29.29.29.76 0 1.06z" /></symbol><symbol viewBox="0 0 24 24" id="arrow-down"><path fill-rule="evenodd" clip-rule="evenodd" d="M3.55 8.42a.75.75 0 011.06 0l6.52 6.52a1.236 1.236 0 001.74 0l6.52-6.52a.75.75 0 011.06 1.06L13.93 16a2.736 2.736 0 01-3.86 0L3.55 9.48a.75.75 0 010-1.06z" /></symbol><symbol viewBox="0 0 16 17" id="attach-square"><path fill-rule="evenodd" clip-rule="evenodd" d="M2.063 2.899c.89-.89 2.221-1.23 3.937-1.23h4c1.716 0 3.047.34 3.937 1.23.89.89 1.23 2.22 1.23 3.937v4c0 1.716-.34 3.047-1.23 3.937-.89.89-2.221 1.23-3.937 1.23H6c-1.716 0-3.047-.34-3.937-1.23-.89-.89-1.23-2.221-1.23-3.937v-4c0-1.716.34-3.047 1.23-3.937zm.707.707c-.61.61-.937 1.612-.937 3.23v4c0 1.617.327 2.62.937 3.23.61.61 1.613.936 3.23.936h4c1.617 0 2.62-.326 3.23-.936.61-.61.937-1.613.937-3.23v-4c0-1.618-.327-2.62-.937-3.23-.61-.61-1.613-.937-3.23-.937H6c-1.617 0-2.62.327-3.23.937zm3.664 2.315a3.172 3.172 0 014.48.001v.001a3.172 3.172 0 010 4.48l-1.48 1.48a1.836 1.836 0 01-2.594 0 1.836 1.836 0 010-2.594l.94-.94a.5.5 0 01.707.707l-.94.94a.836.836 0 000 1.18.836.836 0 001.18 0l1.48-1.48a2.172 2.172 0 00-.001-3.067 2.172 2.172 0 00-3.066.001L5.527 8.243a1.785 1.785 0 000 2.526.5.5 0 11-.707.707 2.785 2.785 0 010-3.94l1.613-1.614h.001z" /></symbol><symbol fill="none" viewBox="0 0 10 8" id="check"><path d="M9.382 1.886L4.184 7.083a.687.687 0 01-.971 0L.618 4.49a.692.692 0 010-.971.692.692 0 01.972 0l2.108 2.108L8.41.914a.692.692 0 01.972 0 .692.692 0 010 .972z" fill="#fff" /></symbol><symbol viewBox="0 0 24 24" id="close-circle"><path d="M12 2C6.49 2 2 6.49 2 12s4.49 10 10 10 10-4.49 10-10S17.51 2 12 2zm3.36 12.3c.29.29.29.77 0 1.06-.15.15-.34.22-.53.22s-.38-.07-.53-.22l-2.3-2.3-2.3 2.3c-.15.15-.34.22-.53.22s-.38-.07-.53-.22a.754.754 0 010-1.06l2.3-2.3-2.3-2.3a.754.754 0 010-1.06c.29-.29.77-.29 1.06 0l2.3 2.3 2.3-2.3c.29-.29.77-.29 1.06 0 .29.29.29.77 0 1.06l-2.3 2.3 2.3 2.3z" /></symbol><symbol viewBox="0 0 16 16" id="divider"><path fill-rule="evenodd" clip-rule="evenodd" d="M8 1a.5.5 0 01.5.5v13a.5.5 0 01-1 0v-13A.5.5 0 018 1z" /></symbol><symbol viewBox="0 0 24 24" id="eye"><path d="M21.25 9.15C18.94 5.52 15.56 3.43 12 3.43c-1.78 0-3.51.52-5.09 1.49-1.58.98-3 2.41-4.16 4.23-1 1.57-1 4.12 0 5.69 2.31 3.64 5.69 5.72 9.25 5.72 1.78 0 3.51-.52 5.09-1.49 1.58-.98 3-2.41 4.16-4.23 1-1.56 1-4.12 0-5.69zM12 16.04c-2.24 0-4.04-1.81-4.04-4.04S9.76 7.96 12 7.96s4.04 1.81 4.04 4.04-1.8 4.04-4.04 4.04z" /><path d="M12 9.14a2.855 2.855 0 000 5.71c1.57 0 2.86-1.28 2.86-2.85S13.57 9.14 12 9.14z" /></symbol><symbol viewBox="0 0 24 24" id="eye-slash"><path d="M21.27 9.18c-.29-.46-.6-.89-.92-1.29a1 1 0 00-1.49-.09l-3 3c.22.66.26 1.42.06 2.21a4.021 4.021 0 01-2.9 2.9c-.79.2-1.55.16-2.21-.06l-2.46 2.46c-.5.5-.34 1.38.33 1.64 1.07.41 2.18.62 3.32.62 1.78 0 3.51-.52 5.09-1.49 1.61-1 3.06-2.47 4.23-4.34.95-1.51.9-4.05-.05-5.56z" /><path d="M14.86 12c0 1.57-1.28 2.86-2.86 2.86-.06 0-.11 0-.17-.02l3.01-3.01c.02.06.02.11.02.17z" /><path fill-rule="evenodd" d="M20.68 2.23c.3-.3.79-.3 1.09 0 .31.3.31.78 0 1.08L3.31 21.77a.758.758 0 01-1.08.01c-.3-.3-.3-.79 0-1.09l2.94-2.941a14.66 14.66 0 01-2.42-2.909c-1-1.57-1-4.12 0-5.69C3.91 7.33 5.33 5.9 6.91 4.92c1.58-.96 3.31-1.49 5.09-1.49 1.986 0 3.917.65 5.63 1.852l3.05-3.052zm-6.413 6.416A4.018 4.018 0 0012 7.96c-2.24 0-4.04 1.81-4.04 4.04 0 .842.254 1.621.69 2.266l.864-.864A2.844 2.844 0 019.14 12c0-1.57 1.28-2.86 2.86-2.86.504 0 .984.138 1.4.374l.867-.868z" clip-rule="evenodd" /></symbol><symbol viewBox="0 0 24 24" id="heart"><path d="M16.44 3.1c-1.81 0-3.43.88-4.44 2.23A5.549 5.549 0 007.56 3.1C4.49 3.1 2 5.6 2 8.69c0 1.19.19 2.29.52 3.31 1.58 5 6.45 7.99 8.86 8.81.34.12.9.12 1.24 0 2.41-.82 7.28-3.81 8.86-8.81.33-1.02.52-2.12.52-3.31 0-3.09-2.49-5.59-5.56-5.59z" /></symbol><symbol viewBox="0 0 16 16" id="info-circle"><path d="M8 1.333C4.326 1.333 1.333 4.327 1.333 8c0 3.673 2.993 6.667 6.667 6.667 3.673 0 6.666-2.994 6.666-6.667 0-3.673-2.993-6.667-6.666-6.667zm-.5 4c0-.273.226-.5.5-.5.273 0 .5.227.5.5v3.334c0 .273-.227.5-.5.5a.504.504 0 01-.5-.5V5.333zm1.113 5.587a.69.69 0 01-.14.22.771.771 0 01-.22.14.664.664 0 01-.253.053.664.664 0 01-.254-.053.771.771 0 01-.22-.14.69.69 0 01-.14-.22.664.664 0 01-.053-.253c0-.087.02-.174.053-.254a.77.77 0 01.14-.22.77.77 0 01.22-.14.667.667 0 01.507 0 .77.77 0 01.22.14.77.77 0 01.14.22c.033.08.053.167.053.254 0 .086-.02.173-.053.253z" /></symbol><symbol viewBox="0 0 16 17" id="link-2"><path fill-rule="evenodd" clip-rule="evenodd" d="M12.367 4.47a3.502 3.502 0 10-4.953 4.952.5.5 0 01-.708.707 4.508 4.508 0 010-6.366c1.756-1.764 4.606-1.754 6.367-.001 1.764 1.756 1.754 4.606.001 6.367a.5.5 0 11-.708-.706 3.502 3.502 0 00.001-4.953zM3.641 7.776a.5.5 0 01-.002.708 3.333 3.333 0 004.715 4.71 3.326 3.326 0 000-4.711.5.5 0 01.706-.707 4.327 4.327 0 010 6.127c-1.694 1.687-4.437 1.697-6.128-.001-1.686-1.694-1.696-4.437.002-6.127a.5.5 0 01.707.001z" /></symbol><symbol viewBox="0 0 24 24" id="mask"><path d="M12 2C6.48 2 2 6.48 2 12s4.48 10 10 10 10-4.48 10-10S17.52 2 12 2zm0 15c-2.76 0-5-2.24-5-5s2.24-5 5-5 5 2.24 5 5-2.24 5-5 5z" /><path d="M12 7v10c-2.76 0-5-2.24-5-5s2.24-5 5-5z" /></symbol><symbol viewBox="0 0 24 24" id="menu"><path d="M20 19.26H4.004c-.45 0-.82-.37-.82-.82 0-.45.37-.82.82-.82H20c.45 0 .82.37.82.82 0 .46-.37.82-.82.82zM20 12.97H4.004c-.45 0-.82-.37-.82-.82 0-.45.37-.82.82-.82H20c.45 0 .82.37.82.82 0 .45-.37.82-.82.82zM20 6.67H4.004c-.45 0-.82-.37-.82-.82 0-.45.37-.82.82-.82H20c.45 0 .82.37.82.82 0 .45-.37.82-.82.82z" /></symbol><symbol viewBox="0 0 24 24" id="menu-close"><path d="M18.237 7.074L6.926 18.385a.824.824 0 01-1.16 0 .824.824 0 010-1.16l11.312-11.31a.824.824 0 011.16 0 .824.824 0 010 1.16z" /><path d="M17.078 18.385L5.766 7.075a.824.824 0 010-1.16.824.824 0 011.16 0l11.311 11.31a.824.824 0 010 1.16.824.824 0 01-1.16 0z" /></symbol><symbol viewBox="0 0 16 17" id="quote-down-square"><path fill-rule="evenodd" clip-rule="evenodd" d="M2.063 2.899c.89-.89 2.221-1.23 3.937-1.23h4c1.716 0 3.047.34 3.937 1.23.89.89 1.23 2.22 1.23 3.937v4c0 1.716-.34 3.047-1.23 3.937-.89.89-2.221 1.23-3.937 1.23H6c-1.716 0-3.047-.34-3.937-1.23-.89-.89-1.23-2.221-1.23-3.937v-4c0-1.716.34-3.047 1.23-3.937zm.707.707c-.61.61-.937 1.612-.937 3.23v4c0 1.617.327 2.62.937 3.23.61.61 1.613.936 3.23.936h4c1.617 0 2.62-.326 3.23-.936.61-.61.937-1.613.937-3.23v-4c0-1.618-.327-2.62-.937-3.23-.61-.61-1.613-.937-3.23-.937H6c-1.617 0-2.62.327-3.23.937zm3.72 2.288a.5.5 0 01-.175.685c-.532.315-.764.49-.908.746-.12.214-.201.53-.23 1.118h1.276c.766 0 1.294.6 1.294 1.293v.993c0 .693-.528 1.294-1.294 1.294H5.46a1.3 1.3 0 01-1.293-1.294V8.943c0-.94.082-1.597.368-2.107.29-.52.755-.812 1.27-1.117a.5.5 0 01.685.175zM5.167 9.443v1.286a.3.3 0 00.293.294h.993c.181 0 .294-.12.294-.294v-.993c0-.174-.113-.293-.294-.293H5.167zm5.416-3.549a.5.5 0 01-.175.685c-.531.315-.764.49-.908.746-.12.214-.201.53-.23 1.118h1.276c.766 0 1.294.6 1.294 1.293v.993c0 .693-.528 1.294-1.294 1.294h-.993a1.3 1.3 0 01-1.293-1.294V8.943c0-.94.082-1.597.368-2.106.291-.52.755-.813 1.27-1.118a.5.5 0 01.685.175zM9.26 9.443v1.286a.3.3 0 00.293.294h.993c.181 0 .294-.12.294-.294v-.993c0-.174-.113-.293-.294-.293H9.26z" /></symbol><symbol viewBox="0 0 20 20" id="star"><path d="M12.825 4.342L14 6.692c.158.325.583.633.942.7l2.125.35c1.358.225 1.675 1.208.7 2.191l-1.659 1.659c-.275.275-.433.816-.341 1.208l.475 2.05c.375 1.617-.492 2.25-1.917 1.4l-1.992-1.183c-.358-.217-.958-.217-1.316 0L9.025 16.25c-1.425.842-2.292.217-1.917-1.4l.475-2.05c.075-.4-.083-.942-.358-1.217L5.567 9.925c-.975-.975-.659-1.958.7-2.192l2.125-.35c.358-.058.783-.375.941-.7l1.175-2.35c.642-1.266 1.675-1.266 2.317.009zM6.667 4.792h-5a.63.63 0 01-.625-.625.63.63 0 01.625-.625h5a.63.63 0 01.625.625.63.63 0 01-.625.625zM4.167 16.458h-2.5a.63.63 0 01-.625-.625.63.63 0 01.625-.625h2.5a.63.63 0 01.625.625.63.63 0 01-.625.625zM2.5 10.625h-.833A.63.63 0 011.042 10a.63.63 0 01.625-.625H2.5a.63.63 0 01.625.625.63.63 0 01-.625.625z" /></symbol><symbol viewBox="0 0 25 24" id="task"><path d="M20.11 19.26h-9.07c-.45 0-.82-.37-.82-.82 0-.45.37-.82.82-.82h9.07c.45 0 .82.37.82.82 0 .46-.37.82-.82.82zM20.11 12.97h-9.07c-.45 0-.82-.37-.82-.82 0-.45.37-.82.82-.82h9.07c.45 0 .82.37.82.82 0 .45-.37.82-.82.82zM20.11 6.67h-9.07c-.45 0-.82-.37-.82-.82 0-.45.37-.82.82-.82h9.07c.45 0 .82.37.82.82 0 .45-.37.82-.82.82zM5.02 8.03c-.22 0-.43-.09-.58-.24l-.91-.91a.82.82 0 011.16-1.16l.33.33 2.14-2.14a.82.82 0 011.16 1.16L5.6 7.79c-.16.15-.36.24-.58.24zM5.02 14.33c-.21 0-.42-.08-.58-.24l-.91-.91a.82.82 0 011.16-1.16l.33.33 2.14-2.14a.82.82 0 011.16 1.16L5.6 14.09c-.16.16-.37.24-.58.24zM5.02 20.33c-.21 0-.42-.08-.58-.24l-.91-.91a.82.82 0 011.16-1.16l.33.33 2.14-2.14a.82.82 0 011.16 1.16L5.6 20.09c-.16.16-.37.24-.58.24z" /></symbol><symbol viewBox="0 0 16 16" id="text-bold"><path fill-rule="evenodd" clip-rule="evenodd" d="M4.587 2.167A.837.837 0 003.753 3v4.5h4.248a2.67 2.67 0 002.666-2.667A2.67 2.67 0 008 2.167H4.587zm5.825 5.427a3.66 3.66 0 001.255-2.76A3.67 3.67 0 008 1.166H4.587c-1.01 0-1.834.824-1.834 1.833v10c0 1.01.824 1.833 1.834 1.833h5a3.67 3.67 0 003.666-3.666 3.672 3.672 0 00-2.841-3.573zm-2.41.906H3.753V13c0 .457.376.833.834.833h5a2.67 2.67 0 002.666-2.666A2.67 2.67 0 009.587 8.5H8.002z" /></symbol><symbol viewBox="0 0 16 16" id="text-italic"><path fill-rule="evenodd" clip-rule="evenodd" d="M9.489 1.5H6.413a.5.5 0 100 1H8.86l-2.75 11H3.413a.5.5 0 000 1H9.58a.5.5 0 000-1H7.14l2.75-11h2.69a.5.5 0 000-1H9.51a.49.49 0 00-.021 0z" /></symbol><symbol viewBox="0 0 16 16" id="text-underline"><path fill-rule="evenodd" clip-rule="evenodd" d="M3.333 1.5a.5.5 0 01.5.5v4.667A4.163 4.163 0 008 10.833a4.163 4.163 0 004.167-4.166V2a.5.5 0 111 0v4.667A5.163 5.163 0 018 11.833a5.163 5.163 0 01-5.167-5.166V2a.5.5 0 01.5-.5zm-.5 12.5a.5.5 0 01.5-.5h9.334a.5.5 0 010 1H3.333a.5.5 0 01-.5-.5z" /></symbol><symbol viewBox="0 0 16 16" id="tick-circle"><path d="M8 1.333C4.326 1.333 1.333 4.327 1.333 8c0 3.673 2.993 6.667 6.667 6.667 3.673 0 6.666-2.994 6.666-6.667 0-3.673-2.993-6.667-6.666-6.667zm3.186 5.134l-3.78 3.78a.5.5 0 01-.706 0L4.813 8.36a.503.503 0 010-.707.503.503 0 01.707 0l1.533 1.534L10.48 5.76a.503.503 0 01.706 0 .503.503 0 010 .707z" /></symbol></defs></svg>